<svg xmlns="http://www.w3.org/2000/svg" xmlns:xlink="http://www.w3.org/1999/xlink" width="2048" zoomAndPan="magnify" viewBox="0 0 1536 391.91998" height="512" preserveAspectRatio="xMidYMid meet" version="1.0"><defs><g/><clipPath id="b43c604eeb"><path d="M 144 68.535156 L 217 68.535156 L 217 142 L 144 142 Z M 144 68.535156 " clip-rule="nonzero"/></clipPath><clipPath id="6f1df05a4d"><path d="M 29.941406 103 L 330.632812 103 L 330.632812 315.234375 L 29.941406 315.234375 Z M 29.941406 103 " clip-rule="nonzero"/></clipPath><clipPath id="e10221bdcc"><rect x="0" width="1112" y="0" height="258"/></clipPath></defs><g clip-path="url(#b43c604eeb)"><path fill="#f09c0b" d="M 177.195312 140.03125 C 178.863281 141.699219 181.59375 141.699219 183.261719 140.03125 L 215.144531 108.144531 C 216.8125 106.476562 216.8125 103.75 215.144531 102.082031 L 183.261719 70.195312 C 181.59375 68.527344 178.863281 68.527344 177.195312 70.195312 L 145.3125 102.082031 C 143.644531 103.75 143.644531 106.476562 145.3125 108.144531 Z M 177.195312 140.03125 " fill-opacity="1" fill-rule="evenodd"/></g><path fill="#f09c0b" d="M 304.902344 171.847656 C 296.160156 173.113281 288.105469 175.949219 280.71875 180.875 C 277.527344 183.007812 276.546875 184.273438 279.242188 188.117188 C 287.15625 199.394531 285.582031 214.011719 276.242188 223.257812 C 266.902344 232.503906 252.441406 233.859375 241.058594 225.964844 C 237.804688 223.707031 236.296875 224.09375 233.855469 226.695312 C 228.375 232.535156 222.816406 238.34375 216.835938 243.652344 C 213.128906 246.941406 213.953125 248.800781 217.320312 251.367188 C 237.417969 266.679688 259.261719 270.316406 282.414062 259.851562 C 306.191406 249.097656 317.492188 229.609375 318.777344 203.96875 C 318.664062 193.964844 316.355469 184.789062 312.3125 176.042969 C 310.695312 172.539062 308.675781 171.300781 304.902344 171.847656 Z M 304.902344 171.847656 " fill-opacity="1" fill-rule="evenodd"/><path fill="#f09c0b" d="M 143.621094 243.652344 C 137.636719 238.34375 132.078125 232.535156 126.597656 226.695312 C 124.15625 224.09375 122.652344 223.707031 119.398438 225.964844 C 108.015625 233.859375 93.554688 232.5 84.214844 223.257812 C 74.875 214.011719 73.300781 199.394531 81.214844 188.117188 C 83.910156 184.273438 82.929688 183.007812 79.734375 180.875 C 72.347656 175.949219 64.292969 173.113281 55.554688 171.847656 C 51.777344 171.300781 49.761719 172.539062 48.144531 176.042969 C 44.101562 184.789062 41.789062 193.964844 41.679688 203.96875 C 42.964844 229.609375 54.265625 249.097656 78.042969 259.851562 C 101.195312 270.316406 123.039062 266.679688 143.136719 251.367188 C 146.503906 248.800781 147.328125 246.941406 143.621094 243.652344 Z M 143.621094 243.652344 " fill-opacity="1" fill-rule="evenodd"/><g clip-path="url(#6f1df05a4d)"><path fill="#f09c0b" d="M 195.339844 257.980469 C 191.289062 254.835938 191.855469 253.082031 195.199219 249.777344 C 219.480469 225.78125 309.1875 136.078125 330.464844 114.878906 C 307.667969 100.191406 278.167969 97.875 256.128906 121.6875 C 232.949219 146.730469 208.003906 170.128906 184.03125 194.449219 C 182.570312 195.929688 181.378906 196.878906 180.226562 197.222656 C 179.074219 196.878906 177.886719 195.929688 176.425781 194.449219 C 152.453125 170.128906 127.507812 146.730469 104.328125 121.6875 C 82.289062 97.875 52.789062 100.191406 29.992188 114.878906 C 51.269531 136.078125 140.976562 225.78125 165.253906 249.777344 C 168.601562 253.082031 169.167969 254.835938 165.117188 257.980469 C 160.3125 261.710938 152.554688 264.859375 152.152344 270.207031 C 151.792969 274.953125 173.296875 304.59375 180.203125 315.332031 L 180.226562 315.378906 C 180.226562 315.375 180.226562 315.375 180.226562 315.371094 C 180.230469 315.375 180.230469 315.375 180.230469 315.378906 L 180.242188 315.351562 C 187.136719 304.628906 208.664062 274.953125 208.304688 270.207031 C 207.902344 264.859375 200.144531 261.710938 195.339844 257.980469 Z M 195.339844 257.980469 " fill-opacity="1" fill-rule="evenodd"/></g><g transform="matrix(1, 0, 0, 1, 391, 61)"><g clip-path="url(#e10221bdcc)"><g fill="#f09c0b" fill-opacity="1"><g transform="translate(1.065822, 192.423013)"><g><path d="M 103.875 -128.609375 L 103.875 -103.515625 L 69.796875 -103.515625 L 69.796875 0 L 38.46875 0 L 38.46875 -103.515625 L 4.390625 -103.515625 L 4.390625 -128.609375 Z M 103.875 -128.609375 "/></g></g></g><g fill="#ffffff" fill-opacity="1"><g transform="translate(109.368479, 192.423013)"><g><path d="M 121.640625 -128.609375 L 77.125 -42.5 L 77.125 0 L 45.796875 0 L 45.796875 -42.5 L 1.28125 -128.609375 L 36.828125 -128.609375 L 61.734375 -74.75 L 86.46875 -128.609375 Z M 121.640625 -128.609375 "/></g></g></g><g fill="#ffffff" fill-opacity="1"><g transform="translate(232.272651, 192.423013)"><g><path d="M 6.046875 -64.484375 C 6.046875 -77.191406 8.789062 -88.519531 14.28125 -98.46875 C 19.78125 -108.425781 27.445312 -116.179688 37.28125 -121.734375 C 47.113281 -127.296875 58.257812 -130.078125 70.71875 -130.078125 C 85.976562 -130.078125 99.046875 -126.046875 109.921875 -117.984375 C 120.796875 -109.921875 128.0625 -98.925781 131.71875 -85 L 97.28125 -85 C 94.71875 -90.375 91.082031 -94.46875 86.375 -97.28125 C 81.675781 -100.09375 76.332031 -101.5 70.34375 -101.5 C 60.695312 -101.5 52.878906 -98.140625 46.890625 -91.421875 C 40.910156 -84.703125 37.921875 -75.722656 37.921875 -64.484375 C 37.921875 -53.253906 40.910156 -44.28125 46.890625 -37.5625 C 52.878906 -30.84375 60.695312 -27.484375 70.34375 -27.484375 C 76.332031 -27.484375 81.675781 -28.882812 86.375 -31.6875 C 91.082031 -34.5 94.71875 -38.59375 97.28125 -43.96875 L 131.71875 -43.96875 C 128.0625 -30.039062 120.796875 -19.078125 109.921875 -11.078125 C 99.046875 -3.078125 85.976562 0.921875 70.71875 0.921875 C 58.257812 0.921875 47.113281 -1.851562 37.28125 -7.40625 C 27.445312 -12.96875 19.78125 -20.695312 14.28125 -30.59375 C 8.789062 -40.488281 6.046875 -51.785156 6.046875 -64.484375 Z M 6.046875 -64.484375 "/></g></g></g><g fill="#ffffff" fill-opacity="1"><g transform="translate(371.844901, 192.423013)"><g><path d="M 122.75 -128.609375 L 122.75 0 L 91.421875 0 L 91.421875 -52.953125 L 42.6875 -52.953125 L 42.6875 0 L 11.359375 0 L 11.359375 -128.609375 L 42.6875 -128.609375 L 42.6875 -78.234375 L 91.421875 -78.234375 L 91.421875 -128.609375 Z M 122.75 -128.609375 "/></g></g></g><g fill="#ffffff" fill-opacity="1"><g transform="translate(505.739002, 192.423013)"><g><path d="M 72.1875 1.28125 C 60.09375 1.28125 49.003906 -1.523438 38.921875 -7.140625 C 28.847656 -12.765625 20.847656 -20.613281 14.921875 -30.6875 C 9.003906 -40.757812 6.046875 -52.085938 6.046875 -64.671875 C 6.046875 -77.253906 9.003906 -88.550781 14.921875 -98.5625 C 20.847656 -108.582031 28.847656 -116.398438 38.921875 -122.015625 C 49.003906 -127.628906 60.09375 -130.4375 72.1875 -130.4375 C 84.269531 -130.4375 95.347656 -127.628906 105.421875 -122.015625 C 115.503906 -116.398438 123.445312 -108.582031 129.25 -98.5625 C 135.050781 -88.550781 137.953125 -77.253906 137.953125 -64.671875 C 137.953125 -52.085938 135.019531 -40.757812 129.15625 -30.6875 C 123.289062 -20.613281 115.347656 -12.765625 105.328125 -7.140625 C 95.316406 -1.523438 84.269531 1.28125 72.1875 1.28125 Z M 72.1875 -27.296875 C 82.445312 -27.296875 90.660156 -30.710938 96.828125 -37.546875 C 102.992188 -44.390625 106.078125 -53.429688 106.078125 -64.671875 C 106.078125 -76.023438 102.992188 -85.09375 96.828125 -91.875 C 90.660156 -98.65625 82.445312 -102.046875 72.1875 -102.046875 C 61.800781 -102.046875 53.523438 -98.6875 47.359375 -91.96875 C 41.191406 -85.25 38.109375 -76.148438 38.109375 -64.671875 C 38.109375 -53.316406 41.191406 -44.25 47.359375 -37.46875 C 53.523438 -30.6875 61.800781 -27.296875 72.1875 -27.296875 Z M 72.1875 -27.296875 "/></g></g></g><g fill="#f09c0b" fill-opacity="1"><g transform="translate(649.741124, 192.423013)"><g><path d="M 42.6875 -24.1875 L 83.71875 -24.1875 L 83.71875 0 L 11.359375 0 L 11.359375 -128.609375 L 42.6875 -128.609375 Z M 42.6875 -24.1875 "/></g></g></g><g fill="#ffffff" fill-opacity="1"><g transform="translate(737.151694, 192.423013)"><g><path d="M 72.1875 1.28125 C 60.09375 1.28125 49.003906 -1.523438 38.921875 -7.140625 C 28.847656 -12.765625 20.847656 -20.613281 14.921875 -30.6875 C 9.003906 -40.757812 6.046875 -52.085938 6.046875 -64.671875 C 6.046875 -77.253906 9.003906 -88.550781 14.921875 -98.5625 C 20.847656 -108.582031 28.847656 -116.398438 38.921875 -122.015625 C 49.003906 -127.628906 60.09375 -130.4375 72.1875 -130.4375 C 84.269531 -130.4375 95.347656 -127.628906 105.421875 -122.015625 C 115.503906 -116.398438 123.445312 -108.582031 129.25 -98.5625 C 135.050781 -88.550781 137.953125 -77.253906 137.953125 -64.671875 C 137.953125 -52.085938 135.019531 -40.757812 129.15625 -30.6875 C 123.289062 -20.613281 115.347656 -12.765625 105.328125 -7.140625 C 95.316406 -1.523438 84.269531 1.28125 72.1875 1.28125 Z M 72.1875 -27.296875 C 82.445312 -27.296875 90.660156 -30.710938 96.828125 -37.546875 C 102.992188 -44.390625 106.078125 -53.429688 106.078125 -64.671875 C 106.078125 -76.023438 102.992188 -85.09375 96.828125 -91.875 C 90.660156 -98.65625 82.445312 -102.046875 72.1875 -102.046875 C 61.800781 -102.046875 53.523438 -98.6875 47.359375 -91.96875 C 41.191406 -85.25 38.109375 -76.148438 38.109375 -64.671875 C 38.109375 -53.316406 41.191406 -44.25 47.359375 -37.46875 C 53.523438 -30.6875 61.800781 -27.296875 72.1875 -27.296875 Z M 72.1875 -27.296875 "/></g></g></g><g fill="#ffffff" fill-opacity="1"><g transform="translate(881.119908, 192.423013)"><g><path d="M 85.921875 0 L 42.6875 -56.796875 L 42.6875 0 L 11.359375 0 L 11.359375 -128.609375 L 42.6875 -128.609375 L 42.6875 -72.1875 L 85.5625 -128.609375 L 122.375 -128.609375 L 72.546875 -65.59375 L 124.21875 0 Z M 85.921875 0 "/></g></g></g><g fill="#ffffff" fill-opacity="1"><g transform="translate(1008.786346, 192.423013)"><g><path d="M 42.6875 -103.515625 L 42.6875 -77.5 L 84.640625 -77.5 L 84.640625 -53.3125 L 42.6875 -53.3125 L 42.6875 -25.09375 L 90.140625 -25.09375 L 90.140625 0 L 11.359375 0 L 11.359375 -128.609375 L 90.140625 -128.609375 L 90.140625 -103.515625 Z M 42.6875 -103.515625 "/></g></g></g></g></g></svg>